<svg xmlns="http://www.w3.org/2000/svg" xmlns:xlink="http://www.w3.org/1999/xlink" version="1.1" x="0px" y="0px" width="6.163px" height="10.422px" viewBox="68.919 66.79 6.163 10.422" enable-background="new 68.919 66.79 6.163 10.422" xml:space="preserve"><style>.style0{fill:	#FF4DFF;}</style><path d="M70.599 71.979l4.336-4.335c0.195-0.195 0.195-0.512 0-0.707s-0.512-0.195-0.707 0l-4.31 4.309V67.29 c0-0.276-0.224-0.5-0.5-0.5s-0.5 0.224-0.5 0.5v9.422c0 0.3 0.2 0.5 0.5 0.5s0.5-0.224 0.5-0.5v-3.999l4.31 4.3 c0.098 0.1 0.2 0.1 0.4 0.146s0.256-0.049 0.354-0.146c0.195-0.195 0.195-0.512 0-0.707L70.599 71.979z" class="style0"/></svg>